<?xml version="1.0" encoding="UTF-8"?>
<!DOCTYPE svg PUBLIC "-//W3C//DTD SVG 1.1//EN" "http://www.w3.org/Graphics/SVG/1.1/DTD/svg11.dtd">
<!-- Creator: CorelDRAW 2020 (64-Bit) -->
<svg xmlns="http://www.w3.org/2000/svg" xml:space="preserve" width="1249.8mm" height="189.507mm" version="1.1" style="shape-rendering:geometricPrecision; text-rendering:geometricPrecision; image-rendering:optimizeQuality; fill-rule:evenodd; clip-rule:evenodd"
viewBox="0 0 122383.89 18557.09"
 xmlns:xlink="http://www.w3.org/1999/xlink"
 xmlns:xodm="http://www.corel.com/coreldraw/odm/2003">
 <defs>
  <style type="text/css">
   <![CDATA[
    .fil2 {fill:none}
    .fil0 {fill:#F3613C}
    .fil1 {fill:#F36A48}
   ]]>
  </style>
   <clipPath id="id0">
    <path d="M-0 0l122383.89 0 0 18557.09 -122383.89 0 0 -18557.09z"/>
   </clipPath>
 </defs>
 <g id="Capa_x0020_1">
  <metadata id="CorelCorpID_0Corel-Layer"/>
  <polygon class="fil0" points="-0,0 122383.89,0 122383.89,18557.09 -0,18557.09 "/>
  <g style="clip-path:url(#id0)">
   <g id="_1841700743584">
    <path id="1" class="fil1" d="M17052.08 41293.75l0.07 0.07c5044.16,5044.16 13225.49,5044.16 18269.69,-0.04l23398.17 -23398.13c5044.14,-5044.14 5044.14,-13225.5 -0.04,-18269.66l-0.03 -0.1c-5044.22,-5044.16 -13225.56,-5044.16 -18269.75,0.03l-23398.11 23398.11c-5044.19,5044.19 -5044.19,13225.53 -0.03,18269.69z"/>
    <path class="fil1" d="M106780.64 7941.99l0.07 0.07c5044.16,5044.16 13225.49,5044.16 18269.69,-0.04l23398.17 -23398.13c5044.14,-5044.14 5044.14,-13225.5 -0.04,-18269.66l-0.03 -0.1c-5044.22,-5044.16 -13225.56,-5044.16 -18269.75,0.03l-23398.11 23398.11c-5044.19,5044.19 -5044.19,13225.53 -0.03,18269.69z"/>
   </g>
  </g>
  <polygon class="fil2" points="-0,0 122383.89,0 122383.89,18557.09 -0,18557.09 "/>
 </g>
</svg>
